<svg viewBox="0 0 200 200" xmlns="http://www.w3.org/2000/svg" role="img" aria-label="Exocomet Hunter mission emblem">
  <defs>
    <path id="ringPathTop" d="M 100,100 m -82,0 a 82,82 0 1,1 164,0" fill="none"/>
    <path id="ringPathBot" d="M 100,100 m 82,0 a 82,82 0 1,1 -164,0" fill="none"/>
  </defs>
  <circle cx="100" cy="100" r="98" fill="#05070d" stroke="#7cc4ff" stroke-width="1"/>
  <circle cx="100" cy="100" r="82" fill="none" stroke="#3a6ea8" stroke-width="1"/>
  <circle cx="100" cy="100" r="70" fill="none" stroke="#232a42" stroke-width="0.75"/>
  <ellipse cx="100" cy="100" rx="58" ry="22" fill="none" stroke="#7cc4ff" stroke-width="1" opacity="0.55" transform="rotate(-18 100 100)"/>
  <g transform="rotate(-32 100 100)">
    <path d="M 55,100 L 118,96 L 118,104 Z" fill="#7cc4ff" opacity="0.85"/>
    <circle cx="124" cy="100" r="7" fill="#e6e8ef"/>
    <circle cx="124" cy="100" r="11" fill="none" stroke="#7cc4ff" stroke-width="1" opacity="0.6"/>
  </g>
  <circle cx="70" cy="60" r="1.4" fill="#e6e8ef"/>
  <circle cx="140" cy="70" r="1" fill="#e6e8ef"/>
  <circle cx="150" cy="130" r="1.4" fill="#e6e8ef"/>
  <circle cx="62" cy="135" r="1" fill="#e6e8ef"/>
  <text font-family="'SF Mono', Menlo, monospace" font-size="9.5" letter-spacing="3" fill="#e6e8ef">
    <textPath href="#ringPathTop" startOffset="50%" text-anchor="middle">EXOCOMET HUNTER</textPath>
  </text>
  <text font-family="'SF Mono', Menlo, monospace" font-size="8" letter-spacing="3" fill="#7cc4ff">
    <textPath href="#ringPathBot" startOffset="50%" text-anchor="middle">PROGRAM · EXC-01</textPath>
  </text>
</svg>
